# xmcd CD database file generated by Grip 2.94
# 
# Track frame offsets:
#       150
#       18396
#       30821
#       42404
#       59901
#       73655
#       93315
#       105583
#       124245
#       144797
#       158168
#       184242
# 
# Disc length: 2835 seconds
# 
# Revision: 3
# Processed by: cddbd v1.4b41PL1 Copyright (c) Steve Scherf et al.
# Submitted via: Grip 2.94
# 
DISCID=9f0b110c
DTITLE=Mad Dog and the Blues Night Out Blues Band - Shoulda', Coulda', Woulda'
DYEAR=1900
DGENRE=
TTITLE0=Checkin On My Baby
TTITLE1=Rocking
TTITLE2=Love Machine
TTITLE3=Don't Go No Further
TTITLE4=What Am I Gonna Do?
TTITLE5=Easy
TTITLE6=Where's The Stinky?
TTITLE7=Sugar Baby
TTITLE8=They Raided The Joint
TTITLE9=Hard Hearted Woman
TTITLE10=Pink Champagne
TTITLE11=Peter Gunn
EXTD=
EXTT0=
EXTT1=
EXTT2=
EXTT3=
EXTT4=
EXTT5=
EXTT6=
EXTT7=
EXTT8=
EXTT9=
EXTT10=
EXTT11=
PLAYORDER=
